<svg width="331" height="327" viewBox="0 0 331 327" fill="none" xmlns="http://www.w3.org/2000/svg">
<path d="M167.087 6.1748C255.992 6.17498 328 77.3576 328 165.088C327.999 252.818 255.991 324 167.087 324C78.1818 324 6.17287 252.818 6.17261 165.088C6.17261 77.3575 78.1816 6.1748 167.087 6.1748Z" stroke="black" stroke-width="6"/>
<path d="M167.968 4.42771C210.74 4.76004 251.628 22.0148 281.638 52.3962C311.648 82.7775 328.322 123.797 327.991 166.43C327.66 209.064 310.352 249.819 279.874 279.73C249.396 309.642 208.245 326.259 165.474 325.927L166.721 165.177L167.968 4.42771Z" fill="black"/>
<path d="M65.2544 169.975C65.1841 169.998 65.0356 170.03 64.8091 170.069C64.5825 170.108 64.3364 170.147 64.0708 170.186C63.8052 170.233 63.5474 170.268 63.2974 170.291C63.0474 170.323 62.8599 170.338 62.7349 170.338C62.6177 170.338 62.5278 170.299 62.4653 170.221C62.4106 170.151 62.3638 170.049 62.3247 169.916C62.2622 169.706 62.2114 169.436 62.1724 169.108C62.1333 168.78 62.1021 168.452 62.0786 168.123C62.063 167.788 62.0513 167.479 62.0435 167.198C62.0435 166.909 62.0435 166.698 62.0435 166.565C62.0435 166.081 62.0513 165.596 62.0669 165.112C62.0903 164.627 62.1138 164.17 62.1372 163.741C62.1606 163.311 62.1802 162.924 62.1958 162.581C62.2192 162.237 62.231 161.959 62.231 161.748C62.231 161.413 62.2075 161.073 62.1606 160.729C62.1216 160.385 62.0317 160.077 61.8911 159.803C61.7583 159.53 61.563 159.307 61.3052 159.135C61.0552 158.963 60.7231 158.877 60.3091 158.877C59.8091 158.877 59.3872 158.995 59.0435 159.229C58.6997 159.463 58.4146 159.768 58.188 160.143C57.9692 160.518 57.7974 160.94 57.6724 161.409C57.5552 161.877 57.4692 162.35 57.4146 162.827C57.3599 163.295 57.3247 163.745 57.3091 164.174C57.3013 164.596 57.2974 164.948 57.2974 165.229C57.2974 165.416 57.3013 165.651 57.3091 165.932C57.3169 166.213 57.3286 166.506 57.3442 166.811C57.3599 167.108 57.3833 167.397 57.4146 167.678C57.4536 167.952 57.5005 168.174 57.5552 168.346C57.6646 168.698 57.8052 168.952 57.9771 169.108C58.1489 169.256 58.3794 169.362 58.6685 169.424L58.645 169.858C58.5747 169.889 58.4263 169.932 58.1997 169.987C57.9731 170.034 57.7231 170.084 57.4497 170.139C57.1763 170.186 56.9028 170.229 56.6294 170.268C56.3638 170.307 56.1567 170.327 56.0083 170.327C55.8989 170.327 55.8013 170.299 55.7153 170.245C55.6294 170.198 55.5513 170.084 55.481 169.905C55.4028 169.702 55.3325 169.448 55.27 169.143C55.2153 168.831 55.1646 168.502 55.1177 168.159C55.0786 167.815 55.0474 167.475 55.0239 167.139C55.0083 166.795 55.0005 166.487 55.0005 166.213C55.0005 165.682 55.0122 165.127 55.0356 164.549C55.0669 163.971 55.1294 163.401 55.2231 162.838C55.3247 162.268 55.4692 161.717 55.6567 161.186C55.8521 160.655 56.1138 160.174 56.4419 159.745C56.1685 159.784 55.895 159.819 55.6216 159.85C55.356 159.873 55.1606 159.885 55.0356 159.885C54.8169 159.885 54.688 159.803 54.6489 159.639C54.6099 159.467 54.5981 159.225 54.6138 158.913C54.6216 158.631 54.6294 158.331 54.6372 158.01C54.6528 157.69 54.6646 157.393 54.6724 157.12C54.688 156.846 54.6997 156.616 54.7075 156.428C54.7153 156.233 54.7192 156.123 54.7192 156.1C54.7192 155.6 54.688 155.233 54.6255 154.998C54.5708 154.756 54.4185 154.627 54.1685 154.612V154.178C54.3638 154.131 54.5669 154.088 54.7778 154.049C54.9966 154.002 55.2036 153.967 55.3989 153.944C55.5942 153.913 55.77 153.889 55.9263 153.873C56.0903 153.85 56.2192 153.838 56.313 153.838C56.4771 153.838 56.606 153.862 56.6997 153.909C56.7935 153.956 56.8638 154.03 56.9106 154.131C56.9575 154.233 56.9849 154.366 56.9927 154.53C57.0083 154.686 57.0161 154.877 57.0161 155.104C57.0161 155.221 57.0083 155.448 56.9927 155.784C56.9849 156.112 56.9731 156.483 56.9575 156.897C56.9419 157.311 56.9263 157.733 56.9106 158.163C56.895 158.584 56.8833 158.948 56.8755 159.252C57.2974 158.831 57.8208 158.498 58.4458 158.256C59.0786 158.014 59.8442 157.893 60.7427 157.893C61.5396 157.893 62.1802 157.998 62.6646 158.209C63.1567 158.413 63.5396 158.69 63.813 159.041C64.0864 159.385 64.27 159.784 64.3638 160.237C64.4575 160.69 64.5044 161.163 64.5044 161.655C64.5044 161.952 64.4927 162.252 64.4692 162.557C64.4536 162.862 64.4302 163.194 64.3989 163.553C64.3755 163.913 64.3521 164.315 64.3286 164.76C64.313 165.198 64.3052 165.698 64.3052 166.26C64.3052 166.815 64.3091 167.288 64.3169 167.678C64.3325 168.061 64.3677 168.381 64.4224 168.639C64.4849 168.897 64.5825 169.096 64.7153 169.237C64.8481 169.377 65.0356 169.479 65.2778 169.541L65.2544 169.975Z" fill="black"/>
<path d="M108.495 138.585C108.753 138.471 109.283 138.299 110.085 138.07C110.887 137.841 111.775 137.611 112.749 137.382C113.723 137.153 114.683 136.953 115.628 136.781C116.573 136.58 117.304 136.48 117.82 136.48C118.249 136.48 118.607 136.695 118.894 137.125C119.209 137.554 119.481 138.127 119.71 138.843C119.939 139.531 120.111 140.304 120.226 141.164C120.369 141.994 120.484 142.839 120.57 143.699C120.656 144.529 120.713 145.317 120.741 146.062C120.77 146.778 120.784 147.351 120.784 147.781C120.784 150.473 120.613 153.338 120.269 156.375C119.925 159.411 119.366 162.419 118.593 165.398C117.82 168.377 116.803 171.242 115.542 173.992C114.282 176.713 112.721 179.119 110.859 181.21C108.997 183.273 106.82 184.934 104.327 186.195C101.835 187.427 98.9706 188.042 95.7336 188.042C91.6086 188.042 88.5435 186.954 86.5383 184.777C84.5331 182.6 83.5305 179.549 83.5305 175.625C83.5305 174.765 83.5878 173.791 83.7024 172.703C83.8456 171.585 84.0032 170.425 84.175 169.222C84.3756 167.99 84.5904 166.744 84.8196 165.484C85.0774 164.195 85.3209 162.949 85.55 161.746C85.8078 160.514 86.0657 159.225 86.3235 157.878C86.5813 156.532 86.8105 155.272 87.011 154.097C87.2401 152.894 87.412 151.863 87.5266 151.003C87.6698 150.115 87.7414 149.528 87.7414 149.242C87.7414 148.411 87.5266 147.652 87.0969 146.964C86.6959 146.277 85.8795 145.718 84.6477 145.289L84.8196 143.699C87.5982 142.954 89.9185 142.381 91.7805 141.98C93.6425 141.579 94.9602 141.378 95.7336 141.378C96.3638 141.378 96.8222 141.522 97.1086 141.808C97.3951 142.095 97.5383 142.639 97.5383 143.441C97.5383 144.358 97.2375 145.919 96.636 148.125C96.0631 150.33 95.4042 153.195 94.6594 156.718L94.0149 159.812C93.4133 162.763 92.8834 165.498 92.425 168.019C91.9667 170.54 91.7375 172.832 91.7375 174.894C91.7375 176.04 91.8235 177.186 91.9953 178.332C92.1672 179.477 92.468 180.509 92.8977 181.425C93.356 182.342 93.9862 183.087 94.7883 183.66C95.5904 184.233 96.636 184.519 97.925 184.519C99.4146 184.519 100.761 184.147 101.964 183.402C103.167 182.628 104.241 181.597 105.187 180.308C106.161 179.019 107.006 177.529 107.722 175.839C108.467 174.121 109.097 172.302 109.613 170.382C110.157 168.434 110.601 166.458 110.945 164.453C111.317 162.419 111.618 160.442 111.847 158.523C112.076 156.604 112.234 154.813 112.32 153.152C112.406 151.462 112.448 149.986 112.448 148.726C112.448 147.838 112.406 146.907 112.32 145.933C112.262 144.959 112.105 144.057 111.847 143.226C111.589 142.395 111.202 141.694 110.687 141.121C110.171 140.519 109.469 140.147 108.581 140.003L108.495 138.585Z" fill="black"/>
<path d="M245.601 141.292C245.371 142.868 245.099 144.73 244.784 146.878C244.498 148.998 244.183 151.276 243.839 153.71C243.495 156.117 243.137 158.595 242.765 161.144C242.421 163.693 242.091 166.186 241.776 168.621C241.461 171.027 241.16 173.29 240.874 175.41C240.616 177.529 240.401 179.363 240.229 180.91C240.201 181.053 240.172 181.196 240.144 181.339C240.144 181.483 240.144 181.626 240.144 181.769V182.542C240.144 183.287 240.287 183.932 240.573 184.476C240.888 185.02 241.519 185.307 242.464 185.335V186.925C241.748 187.097 241.017 187.255 240.272 187.398C239.556 187.541 238.854 187.67 238.167 187.785C237.508 187.899 236.907 187.985 236.362 188.042C235.818 188.1 235.374 188.128 235.03 188.128C233.827 188.128 233.011 187.828 232.581 187.226C232.151 186.624 231.936 185.822 231.936 184.82C231.936 184.591 231.936 184.376 231.936 184.175C231.965 183.946 231.994 183.717 232.022 183.488C232.223 181.855 232.466 179.921 232.753 177.687C233.039 175.424 233.354 173.032 233.698 170.511C234.042 167.962 234.4 165.341 234.772 162.648C235.145 159.955 235.503 157.334 235.847 154.785C236.219 152.235 236.563 149.843 236.878 147.609C237.222 145.346 237.522 143.384 237.78 141.722L225.663 142.41C225.634 144.1 225.42 145.604 225.019 146.921C224.646 148.21 224.045 149.299 223.214 150.187C222.412 151.075 221.352 151.748 220.034 152.206C218.745 152.665 217.17 152.894 215.308 152.894H214.577C214.463 152.894 214.348 152.894 214.233 152.894C214.119 152.894 214.004 152.88 213.89 152.851V152.078C214.778 151.104 215.436 150.001 215.866 148.769C216.325 147.509 216.554 146.191 216.554 144.816C216.554 143.699 216.382 142.596 216.038 141.507V140.519L266.226 137.511C265.825 139.029 265.624 140.404 265.624 141.636C265.624 143.011 265.81 144.329 266.183 145.589C266.555 146.821 267.128 147.91 267.901 148.855L267.987 149.542C266.985 150.001 265.81 150.23 264.464 150.23C263.347 150.23 262.287 150.029 261.284 149.628C260.31 149.199 259.465 148.583 258.749 147.781C258.061 146.979 257.517 145.976 257.116 144.773C256.744 143.57 256.601 142.195 256.686 140.648L245.601 141.292Z" fill="white"/>
<path d="M167 165H178H189" stroke="white" stroke-width="5"/>
<path d="M145 165H156H167" stroke="black" stroke-width="5"/>
</svg>
