<svg width="331" height="327" viewBox="0 0 331 327" fill="none" xmlns="http://www.w3.org/2000/svg">
<path d="M165.274 326.913C122.502 326.806 81.5233 309.766 51.3541 279.543C21.1849 249.319 4.29603 208.388 4.40289 165.754C4.50975 123.119 21.6036 82.2737 51.9239 52.2026C82.2443 22.1316 123.307 5.29835 166.08 5.40602L165.677 166.16L165.274 326.913Z" fill="white"/>
<path d="M167.087 6.1748C255.992 6.17498 328 77.3576 328 165.088C327.999 252.818 255.991 324 167.087 324C78.1818 324 6.17287 252.818 6.17261 165.088C6.17261 77.3575 78.1816 6.1748 167.087 6.1748Z" stroke="black" stroke-width="6"/>
<path d="M167.968 4.42771C210.74 4.76004 251.628 22.0148 281.638 52.3962C311.648 82.7775 328.322 123.797 327.991 166.43C327.66 209.064 310.352 249.819 279.874 279.73C249.396 309.642 208.245 326.259 165.474 325.927L166.721 165.177L167.968 4.42771Z" fill="black"/>
<path d="M76.0312 172.766C75.9375 172.797 75.7396 172.838 75.4375 172.891C75.1354 172.943 74.8073 172.995 74.4531 173.047C74.099 173.109 73.7552 173.156 73.4219 173.187C73.0885 173.229 72.8385 173.25 72.6719 173.25C72.5156 173.25 72.3958 173.198 72.3125 173.094C72.2396 173 72.1771 172.865 72.125 172.687C72.0417 172.406 71.974 172.047 71.9219 171.609C71.8698 171.172 71.8281 170.734 71.7969 170.297C71.776 169.849 71.7604 169.437 71.75 169.062C71.75 168.677 71.75 168.396 71.75 168.219C71.75 167.573 71.7604 166.927 71.7812 166.281C71.8125 165.635 71.8438 165.026 71.875 164.453C71.9062 163.88 71.9323 163.365 71.9531 162.906C71.9844 162.448 72 162.078 72 161.797C72 161.349 71.9688 160.896 71.9062 160.437C71.8542 159.979 71.7344 159.568 71.5469 159.203C71.3698 158.838 71.1094 158.542 70.7656 158.312C70.4323 158.083 69.9896 157.969 69.4375 157.969C68.7708 157.969 68.2083 158.125 67.75 158.437C67.2917 158.75 66.9115 159.156 66.6094 159.656C66.3177 160.156 66.0885 160.719 65.9219 161.344C65.7656 161.969 65.651 162.599 65.5781 163.234C65.5052 163.859 65.4583 164.458 65.4375 165.031C65.4271 165.594 65.4219 166.062 65.4219 166.437C65.4219 166.687 65.4271 167 65.4375 167.375C65.4479 167.75 65.4635 168.141 65.4844 168.547C65.5052 168.943 65.5365 169.328 65.5781 169.703C65.6302 170.068 65.6927 170.365 65.7656 170.594C65.9115 171.062 66.099 171.401 66.3281 171.609C66.5573 171.807 66.8646 171.948 67.25 172.031L67.2188 172.609C67.125 172.651 66.9271 172.708 66.625 172.781C66.3229 172.844 65.9896 172.911 65.625 172.984C65.2604 173.047 64.8958 173.104 64.5312 173.156C64.1771 173.208 63.901 173.234 63.7031 173.234C63.5573 173.234 63.4271 173.198 63.3125 173.125C63.1979 173.062 63.0938 172.911 63 172.672C62.8958 172.401 62.8021 172.062 62.7188 171.656C62.6458 171.24 62.5781 170.802 62.5156 170.344C62.4635 169.885 62.4219 169.432 62.3906 168.984C62.3698 168.526 62.3594 168.115 62.3594 167.75C62.3594 167.042 62.375 166.302 62.4062 165.531C62.4479 164.76 62.5312 164 62.6562 163.25C62.7917 162.49 62.9844 161.755 63.2344 161.047C63.4948 160.338 63.8438 159.698 64.2812 159.125C63.9167 159.177 63.5521 159.224 63.1875 159.266C62.8333 159.297 62.5729 159.312 62.4062 159.312C62.1146 159.312 61.9427 159.203 61.8906 158.984C61.8385 158.755 61.8229 158.432 61.8438 158.016C61.8542 157.641 61.8646 157.24 61.875 156.812C61.8958 156.385 61.9115 155.99 61.9219 155.625C61.9427 155.26 61.9583 154.953 61.9688 154.703C61.9792 154.443 61.9844 154.297 61.9844 154.266C61.9844 153.599 61.9427 153.109 61.8594 152.797C61.7865 152.474 61.5833 152.302 61.25 152.281V151.703C61.5104 151.641 61.7812 151.583 62.0625 151.531C62.3542 151.469 62.6302 151.422 62.8906 151.391C63.151 151.349 63.3854 151.318 63.5938 151.297C63.8125 151.266 63.9844 151.25 64.1094 151.25C64.3281 151.25 64.5 151.281 64.625 151.344C64.75 151.406 64.8438 151.505 64.9062 151.641C64.9688 151.776 65.0052 151.953 65.0156 152.172C65.0365 152.38 65.0469 152.635 65.0469 152.937C65.0469 153.094 65.0365 153.396 65.0156 153.844C65.0052 154.281 64.9896 154.776 64.9688 155.328C64.9479 155.88 64.9271 156.443 64.9062 157.016C64.8854 157.578 64.8698 158.062 64.8594 158.469C65.4219 157.906 66.1198 157.463 66.9531 157.141C67.7969 156.818 68.8177 156.656 70.0156 156.656C71.0781 156.656 71.9323 156.797 72.5781 157.078C73.2344 157.349 73.7448 157.719 74.1094 158.187C74.474 158.646 74.7188 159.177 74.8438 159.781C74.9688 160.385 75.0312 161.016 75.0312 161.672C75.0312 162.068 75.0156 162.469 74.9844 162.875C74.9635 163.281 74.9323 163.724 74.8906 164.203C74.8594 164.682 74.8281 165.219 74.7969 165.812C74.776 166.396 74.7656 167.062 74.7656 167.812C74.7656 168.552 74.7708 169.182 74.7812 169.703C74.8021 170.213 74.849 170.641 74.9219 170.984C75.0052 171.328 75.1354 171.594 75.3125 171.781C75.4896 171.969 75.7396 172.104 76.0625 172.187L76.0312 172.766Z" fill="black"/>
<path d="M113.913 138.797C114.194 138.672 114.772 138.484 115.647 138.234C116.522 137.984 117.491 137.734 118.553 137.484C119.616 137.234 120.663 137.016 121.694 136.828C122.725 136.609 123.522 136.5 124.085 136.5C124.553 136.5 124.944 136.734 125.257 137.203C125.6 137.672 125.897 138.297 126.147 139.078C126.397 139.828 126.585 140.672 126.71 141.609C126.866 142.516 126.991 143.438 127.085 144.375C127.178 145.281 127.241 146.141 127.272 146.953C127.303 147.734 127.319 148.359 127.319 148.828C127.319 151.766 127.132 154.891 126.757 158.203C126.382 161.516 125.772 164.797 124.928 168.047C124.085 171.297 122.975 174.422 121.6 177.422C120.225 180.391 118.522 183.016 116.491 185.297C114.46 187.547 112.085 189.359 109.366 190.734C106.647 192.078 103.522 192.75 99.991 192.75C95.491 192.75 92.1472 191.562 89.9597 189.188C87.7722 186.812 86.6785 183.484 86.6785 179.203C86.6785 178.266 86.741 177.203 86.866 176.016C87.0222 174.797 87.1941 173.531 87.3816 172.219C87.6004 170.875 87.8347 169.516 88.0847 168.141C88.366 166.734 88.6316 165.375 88.8816 164.062C89.1629 162.719 89.4441 161.312 89.7254 159.844C90.0066 158.375 90.2566 157 90.4754 155.719C90.7254 154.406 90.9129 153.281 91.0379 152.344C91.1941 151.375 91.2722 150.734 91.2722 150.422C91.2722 149.516 91.0379 148.688 90.5691 147.938C90.1316 147.188 89.241 146.578 87.8972 146.109L88.0847 144.375C91.116 143.562 93.6472 142.938 95.6785 142.5C97.7097 142.062 99.1472 141.844 99.991 141.844C100.678 141.844 101.178 142 101.491 142.312C101.803 142.625 101.96 143.219 101.96 144.094C101.96 145.094 101.632 146.797 100.975 149.203C100.35 151.609 99.6316 154.734 98.8191 158.578L98.116 161.953C97.4597 165.172 96.8816 168.156 96.3816 170.906C95.8816 173.656 95.6316 176.156 95.6316 178.406C95.6316 179.656 95.7254 180.906 95.9129 182.156C96.1004 183.406 96.4285 184.531 96.8972 185.531C97.3972 186.531 98.0847 187.344 98.9597 187.969C99.8347 188.594 100.975 188.906 102.382 188.906C104.007 188.906 105.475 188.5 106.788 187.688C108.1 186.844 109.272 185.719 110.303 184.312C111.366 182.906 112.288 181.281 113.069 179.438C113.882 177.562 114.569 175.578 115.132 173.484C115.725 171.359 116.21 169.203 116.585 167.016C116.991 164.797 117.319 162.641 117.569 160.547C117.819 158.453 117.991 156.5 118.085 154.688C118.178 152.844 118.225 151.234 118.225 149.859C118.225 148.891 118.178 147.875 118.085 146.812C118.022 145.75 117.85 144.766 117.569 143.859C117.288 142.953 116.866 142.188 116.303 141.562C115.741 140.906 114.975 140.5 114.007 140.344L113.913 138.797Z" fill="black"/>
<path d="M242.387 141.75C242.137 143.469 241.841 145.5 241.497 147.844C241.184 150.156 240.841 152.641 240.466 155.297C240.091 157.922 239.7 160.625 239.294 163.406C238.919 166.187 238.559 168.906 238.216 171.562C237.872 174.187 237.544 176.656 237.231 178.969C236.95 181.281 236.716 183.281 236.528 184.969C236.497 185.125 236.466 185.281 236.434 185.437C236.434 185.594 236.434 185.75 236.434 185.906V186.75C236.434 187.562 236.591 188.266 236.903 188.859C237.247 189.453 237.934 189.766 238.966 189.797V191.531C238.184 191.719 237.387 191.891 236.575 192.047C235.794 192.203 235.028 192.344 234.278 192.469C233.559 192.594 232.903 192.687 232.309 192.75C231.716 192.812 231.231 192.844 230.856 192.844C229.544 192.844 228.653 192.516 228.184 191.859C227.716 191.203 227.481 190.328 227.481 189.234C227.481 188.984 227.481 188.75 227.481 188.531C227.512 188.281 227.544 188.031 227.575 187.781C227.794 186 228.059 183.891 228.372 181.453C228.684 178.984 229.028 176.375 229.403 173.625C229.778 170.844 230.169 167.984 230.575 165.047C230.981 162.109 231.372 159.25 231.747 156.469C232.153 153.687 232.528 151.078 232.872 148.641C233.247 146.172 233.575 144.031 233.856 142.219L220.637 142.969C220.606 144.812 220.372 146.453 219.934 147.891C219.528 149.297 218.872 150.484 217.966 151.453C217.091 152.422 215.934 153.156 214.497 153.656C213.091 154.156 211.372 154.406 209.341 154.406H208.544C208.419 154.406 208.294 154.406 208.169 154.406C208.044 154.406 207.919 154.391 207.794 154.359V153.516C208.762 152.453 209.481 151.25 209.95 149.906C210.45 148.531 210.7 147.094 210.7 145.594C210.7 144.375 210.512 143.172 210.137 141.984V140.906L264.887 137.625C264.45 139.281 264.231 140.781 264.231 142.125C264.231 143.625 264.434 145.062 264.841 146.437C265.247 147.781 265.872 148.969 266.716 150L266.809 150.75C265.716 151.25 264.434 151.5 262.966 151.5C261.747 151.5 260.591 151.281 259.497 150.844C258.434 150.375 257.512 149.703 256.731 148.828C255.981 147.953 255.387 146.859 254.95 145.547C254.544 144.234 254.387 142.734 254.481 141.047L242.387 141.75Z" fill="white"/>
<path d="M167 165H178H189" stroke="white" stroke-width="6"/>
<path d="M145 165H156H167" stroke="black" stroke-width="6"/>
</svg>
